<?xml version="1.0" encoding="UTF-8"?>
<svg id="Capa_2" data-name="Capa 2" xmlns="http://www.w3.org/2000/svg" viewBox="0 0 551.07 129.02">
  <defs>
    <style>
      .cls-1 {
        fill: #bd3723;
      }

      .cls-2 {
        fill: #1c457f;
      }
    </style>
  </defs>
  <g id="Capa_1-2" data-name="Capa 1">
    <g>
      <path class="cls-1" d="M170.35,67.63c-.25,2.16-.86,4.11-1.84,5.87-.98,1.76-2.22,3.26-3.72,4.51s-3.22,2.23-5.15,2.93c-1.93.7-4.02,1.05-6.28,1.05-2.51,0-4.8-.41-6.88-1.24-2.08-.83-3.87-2.08-5.38-3.76-1.5-1.68-2.67-3.76-3.5-6.24-.83-2.48-1.24-5.38-1.24-8.69s.41-6.17,1.24-8.57c.83-2.41,1.99-4.37,3.5-5.9,1.5-1.53,3.32-2.67,5.45-3.42,2.13-.75,4.5-1.13,7.11-1.13,2.41,0,4.6.33,6.58.98,1.98.65,3.71,1.61,5.19,2.86,1.48,1.25,2.64,2.76,3.5,4.51.85,1.75,1.35,3.71,1.5,5.87h-9.85c-.25-1.9-1.02-3.4-2.29-4.48-1.28-1.08-2.85-1.62-4.7-1.62-1.05,0-2.03.18-2.93.53-.9.35-1.69.94-2.37,1.77-.68.83-1.22,1.93-1.62,3.31-.4,1.38-.6,3.07-.6,5.08,0,4.06.73,7.07,2.18,9.03,1.45,1.96,3.13,2.93,5.04,2.93s3.54-.53,4.89-1.58c1.35-1.05,2.13-2.58,2.33-4.59h9.85Z"/>
      <path class="cls-1" d="M173.21,81.02V30.48h9.78v50.54h-9.78Z"/>
      <path class="cls-1" d="M187.35,39.58v-9.1h9.78v9.1h-9.78ZM187.35,81.02v-37.01h9.78v37.01h-9.78Z"/>
      <path class="cls-1" d="M244.96,81.02v-22.41c0-2.26-.53-4.09-1.58-5.49-1.05-1.4-2.46-2.11-4.21-2.11s-3.3.75-4.48,2.26c-1.18,1.5-1.77,3.38-1.77,5.64v22.11h-9.78v-22.26c0-1.5-.1-2.73-.3-3.69-.2-.95-.54-1.7-1.02-2.26s-1.09-.94-1.84-1.17-1.65-.34-2.71-.34c-3.96,0-5.94,2.41-5.94,7.22v22.49h-9.78v-37.01h9.18v5.42c1.25-2.46,2.76-4.14,4.51-5.04,1.75-.9,3.86-1.35,6.32-1.35,1.25,0,2.37.1,3.35.3.98.2,1.85.54,2.63,1.02.78.48,1.52,1.09,2.22,1.84.7.75,1.4,1.65,2.11,2.71,1-2.05,2.33-3.55,3.99-4.48,1.66-.93,3.66-1.39,6.02-1.39,1.85,0,3.56.31,5.11.94,1.55.63,2.88,1.5,3.99,2.63,1.1,1.13,1.97,2.44,2.59,3.95.63,1.5.94,3.11.94,4.81v25.65h-9.55Z"/>
      <path class="cls-2" d="M294.83,81.02v-37.01h9.18v4.44c.8-1.25,1.64-2.23,2.52-2.93.88-.7,1.78-1.24,2.71-1.62.93-.38,1.87-.61,2.82-.71.95-.1,1.93-.15,2.93-.15h1.28v10c-.9-.15-1.81-.23-2.71-.23-5.97,0-8.95,2.98-8.95,8.95v19.25h-9.78Z"/>
      <path class="cls-2" d="M342.74,76.06c-.7,1.65-1.97,2.95-3.8,3.87-1.83.93-3.95,1.39-6.36,1.39-3.06,0-5.63-.54-7.71-1.62-2.08-1.08-3.76-2.49-5.04-4.25-1.28-1.75-2.21-3.78-2.78-6.09-.58-2.31-.87-4.66-.87-7.07,0-2.86.43-5.48,1.28-7.86.85-2.38,2.01-4.41,3.46-6.09,1.45-1.68,3.16-2.98,5.11-3.91,1.96-.93,4.06-1.39,6.32-1.39,4.61,0,8.07,1.86,10.38,5.56v-4.59h9.78v37.38c0,2.81-.48,5.28-1.43,7.41-.95,2.13-2.26,3.91-3.91,5.34-1.65,1.43-3.61,2.52-5.87,3.27-2.26.75-4.66,1.13-7.22,1.13s-4.94-.36-7.14-1.09c-2.21-.73-4.1-1.76-5.68-3.08-1.58-1.33-2.82-2.95-3.72-4.85-.9-1.91-1.35-4.06-1.35-6.47h9.1c0,2.26.74,4,2.22,5.23,1.48,1.23,3.45,1.84,5.9,1.84,2.61,0,4.81-.72,6.62-2.14s2.71-3.37,2.71-5.83v-6.09ZM334.69,73.65c2.41,0,4.4-.91,5.98-2.75,1.58-1.83,2.37-4.33,2.37-7.48,0-7.92-2.78-11.88-8.35-11.88s-8.35,3.76-8.35,11.28c0,3.31.79,5.94,2.37,7.9,1.58,1.96,3.57,2.93,5.98,2.93Z"/>
      <path class="cls-2" d="M365.75,65.07c.15,2.81.96,5.04,2.44,6.69,1.48,1.65,3.42,2.48,5.83,2.48,1.6,0,3.02-.36,4.25-1.09,1.23-.73,2.02-1.74,2.37-3.05h10.08c-1.15,3.81-3.16,6.74-6.02,8.8-2.86,2.06-6.27,3.08-10.23,3.08-12.33,0-18.5-6.72-18.5-20.16,0-2.86.4-5.44,1.2-7.75.8-2.31,1.97-4.29,3.5-5.94,1.53-1.65,3.4-2.92,5.6-3.8,2.21-.88,4.74-1.32,7.6-1.32,5.72,0,10.04,1.83,12.97,5.49,2.93,3.66,4.4,9.17,4.4,16.55h-25.5ZM381.17,58.91c-.05-1.35-.29-2.54-.71-3.57-.43-1.03-.99-1.88-1.69-2.56-.7-.68-1.5-1.18-2.41-1.5-.9-.33-1.83-.49-2.78-.49-1.96,0-3.65.72-5.08,2.14s-2.24,3.42-2.44,5.98h15.12Z"/>
      <path class="cls-2" d="M418.32,81.02v-22.41c0-2.86-.48-4.79-1.43-5.79-.95-1-2.58-1.5-4.89-1.5-5.07,0-7.6,2.83-7.6,8.5v21.21h-9.78v-37.01h9.33v5.42c1.15-2.11,2.68-3.7,4.59-4.78,1.91-1.08,4.36-1.62,7.37-1.62,1.75,0,3.38.26,4.89.79,1.5.53,2.79,1.32,3.87,2.37,1.08,1.05,1.93,2.34,2.56,3.87.63,1.53.94,3.3.94,5.3v25.65h-9.85Z"/>
      <path class="cls-2" d="M453.45,56.65h9.1v10.53c0,1.96-.29,3.82-.86,5.6-.58,1.78-1.48,3.36-2.71,4.74-1.23,1.38-2.78,2.47-4.66,3.27-1.88.8-4.12,1.2-6.73,1.2s-5.01-.4-6.92-1.2c-1.91-.8-3.47-1.88-4.7-3.23-1.23-1.35-2.12-2.93-2.67-4.74-.55-1.8-.83-3.71-.83-5.72v-33.09h9.63v10h20.46v6.92h-20.46v15.19c0,2.36.44,4.17,1.32,5.45.88,1.28,2.32,1.92,4.32,1.92s3.4-.63,4.32-1.88c.93-1.25,1.39-3.03,1.39-5.34v-9.63Z"/>
      <path class="cls-2" d="M466.76,39.58v-9.1h9.78v9.1h-9.78ZM466.76,81.02v-37.01h9.78v37.01h-9.78Z"/>
      <path class="cls-2" d="M504.67,81.02v-22.41c0-2.86-.48-4.79-1.43-5.79-.95-1-2.58-1.5-4.89-1.5-5.07,0-7.6,2.83-7.6,8.5v21.21h-9.78v-37.01h9.33v5.42c1.15-2.11,2.68-3.7,4.59-4.78,1.91-1.08,4.36-1.62,7.37-1.62,1.75,0,3.38.26,4.89.79,1.5.53,2.79,1.32,3.87,2.37,1.08,1.05,1.93,2.34,2.56,3.87.63,1.53.94,3.3.94,5.3v25.65h-9.85Z"/>
      <path class="cls-2" d="M541.97,81.02c-.3-.95-.5-2.05-.6-3.31-1.15,1.3-2.68,2.34-4.59,3.12-1.91.78-4.11,1.17-6.62,1.17-4.26,0-7.38-.94-9.36-2.82-1.98-1.88-2.97-4.32-2.97-7.33,0-2.66.42-4.78,1.28-6.36.85-1.58,2.03-2.82,3.54-3.72,1.5-.9,3.3-1.57,5.38-1.99,2.08-.42,4.35-.81,6.81-1.16,2.46-.35,4.11-.82,4.96-1.39.85-.58,1.28-1.52,1.28-2.82,0-1.2-.56-2.14-1.69-2.82-1.13-.68-2.65-1.02-4.55-1.02-2.26,0-3.87.5-4.85,1.5-.98,1-1.59,2.33-1.84,3.99h-9.1c.05-1.9.36-3.66.94-5.26.58-1.6,1.5-2.98,2.78-4.14,1.28-1.15,2.94-2.04,5-2.67,2.06-.63,4.56-.94,7.52-.94s5.38.33,7.41.98c2.03.65,3.66,1.59,4.89,2.82,1.23,1.23,2.12,2.76,2.67,4.59.55,1.83.83,3.9.83,6.21v23.39h-9.1ZM541.29,62.89c-.5.5-1.23.9-2.18,1.2-.95.3-2.33.63-4.14.98-2.81.55-4.74,1.25-5.79,2.11s-1.58,2.08-1.58,3.68c0,2.76,1.58,4.14,4.74,4.14,1.25,0,2.42-.21,3.5-.64,1.08-.42,2.01-1,2.78-1.73.78-.73,1.4-1.58,1.88-2.56.48-.98.71-2.02.71-3.12l.07-4.06Z"/>
      <path class="cls-2" d="M290.48,55.34c-.13-1.4-.37-2.7-.73-3.89-.55-1.83-1.44-3.36-2.67-4.59s-2.86-2.17-4.89-2.82c-2.03-.65-4.5-.98-7.41-.98s-5.46.32-7.52.94c-2.05.63-3.72,1.52-5,2.67-1.28,1.16-2.21,2.53-2.78,4.14-.58,1.6-.89,3.36-.94,5.26h9.1c.25-1.65.86-2.98,1.84-3.98.98-1.01,2.6-1.51,4.85-1.51,1.91,0,3.43.34,4.55,1.02,1.13.68,1.7,1.62,1.7,2.82,0,1.3-.43,2.24-1.28,2.82-.86.58-2.51,1.04-4.97,1.39-2.45.35-4.72.74-6.8,1.17-2.08.42-3.88,1.09-5.38,1.99-1.51.9-2.68,2.14-3.54,3.72-.85,1.58-1.27,3.7-1.27,6.36,0,3.01.98,5.45,2.97,7.33,1.98,1.88,5.1,2.82,9.36,2.82,2.51,0,4.71-.39,6.62-1.16,1.9-.78,3.43-1.82,4.59-3.13.1,1.26.3,2.36.6,3.31h9.1v-23.29c1.36-1.2,2.7-2.61,3.94-4.28-.55.65-2.1,1.29-4.04,1.87ZM283.97,62.55c-1.17,1.08-3.29,2.23-3.29,2.23-.44,1.06-.19,4.34-.67,5.32-.48.98-1.1,1.83-1.88,2.56-.78.72-1.7,1.3-2.78,1.73-1.08.42-2.25.64-3.5.64-3.16,0-4.74-1.38-4.74-4.14,0-1.6.53-2.83,1.58-3.68,1.06-.86,2.98-1.56,5.79-2.11,1.81-.35,3.25-.53,4.14-.98,0,0,.01,0,.03,0,.28-.06,2.85-.63,6.14-2.36-.06.08-.27.3-.82.8Z"/>
      <g>
        <path class="cls-1" d="M69.82,45.71c1.11.82,2.92.27,4.13-1.36l20.83-27.89c1.21-1.63.78-3.77-.98-4.79l-10.65-6.17c-1.76-1.02-3.84-.33-4.65,1.53l-13.85,31.92c-.81,1.86-.39,3.7.87,4.26.75.33,1.49.71,2.22,1.14.73.42,1.43.88,2.09,1.37Z"/>
        <path class="cls-1" d="M77.32,55.06c.55,1.26,2.38,1.69,4.25.89l31.98-13.74c1.87-.8,2.56-2.88,1.55-4.64l-6.14-10.67c-1.01-1.76-3.16-2.21-4.79-1l-27.97,20.72c-1.63,1.21-2.19,3.01-1.38,4.12.49.67.94,1.36,1.36,2.09s.79,1.47,1.12,2.23Z"/>
        <path class="cls-1" d="M37.91,58.44c-.14.56-.42,1.45-.66,2.54.15-.88.36-1.73.63-2.56l.03.02Z"/>
        <path class="cls-1" d="M45.66,48.31c-1.61,1.11-2.86,2.31-3.68,3.11,1.09-1.19,2.33-2.24,3.68-3.11Z"/>
        <path class="cls-1" d="M75.29,64.41c-.02,8.99-6.22,16.53-14.57,18.57l-.13-37.25c8.44,2.01,14.72,9.62,14.7,18.68Z"/>
        <path class="cls-1" d="M65.43,85.57c-1.27.55-1.69,2.39-.89,4.25l13.74,31.98c.8,1.87,2.88,2.56,4.64,1.55l10.68-6.13c1.76-1.01,2.21-3.16,1-4.79l-20.73-27.97c-1.21-1.63-3.01-2.19-4.12-1.37-.66.49-1.36.94-2.09,1.37-.73.42-1.48.79-2.24,1.12Z"/>
        <path class="cls-1" d="M74.78,78.07c-.82,1.11-.27,2.91,1.36,4.13l27.89,20.83c1.63,1.22,3.77.78,4.79-.98l6.17-10.65c1.02-1.76.34-3.84-1.53-4.65l-31.93-13.86c-1.86-.81-3.7-.4-4.26.87-.33.75-.71,1.49-1.13,2.22-.43.73-.88,1.43-1.37,2.09Z"/>
        <path class="cls-1" d="M79.14,61.92c.09.82.13,1.65.13,2.49,0,.84-.05,1.68-.14,2.5-.15,1.37,1.22,2.66,3.24,2.9l34.56,4.09c2.02.24,3.66-1.21,3.66-3.25l.02-12.31c0-2.03-1.63-3.49-3.65-3.26l-34.58,3.96c-2.02.23-3.4,1.51-3.26,2.88Z"/>
        <path class="cls-2" d="M52.51,45.54c-2.49.47-4.8,1.42-6.85,2.77,1.85-1.3,4.18-2.48,6.85-2.77Z"/>
        <path class="cls-2" d="M60.87,124.94c.01,2.24-1.8,4.07-4.04,4.08h-.02c-2.23,0-4.05-1.81-4.06-4.04l-.04-9.58-5.21,5.34c-1.56,1.6-4.13,1.64-5.73.07-1.61-1.56-1.64-4.13-.07-5.74l10.96-11.24-.09-20.29c-3.63-1.1-7.91-3.12-10.49-5.93l-17.14,10-4.39,15.6c-.61,2.16-2.85,3.42-5,2.8-2.16-.6-3.42-2.84-2.81-5l2.11-7.52-8.45,4.94c-1.95,1.12-4.42.47-5.55-1.46-1.13-1.94-.48-4.42,1.46-5.55l8.27-4.83-7.23-1.84c-2.17-.55-3.48-2.76-2.93-4.93.47-1.84,2.12-3.06,3.93-3.06.33,0,.67.04,1,.13l15.23,3.87,17.07-9.96c-.31-1.18-.92-2.8-.92-5.63,0-1.54.24-2.99.52-4.19.24-1.09.52-1.98.66-2.54l-.03-.02-17.11-9.78-15.71,4c-2.17.56-4.38-.76-4.94-2.93-.55-2.17.77-4.38,2.94-4.93l7.57-1.93-8.51-4.86c-1.94-1.11-2.62-3.59-1.51-5.53.75-1.31,2.12-2.05,3.53-2.05.68,0,1.37.17,2.01.54l8.32,4.75-2.03-7.18c-.6-2.16.65-4.4,2.81-5.01.37-.1.74-.15,1.1-.15,1.77,0,3.4,1.17,3.9,2.96l4.26,15.12,17.47,9.98c.82-.8,2.07-2,3.68-3.11,2.05-1.35,4.36-2.3,6.85-2.77l-.09-20-11.31-11.6c-1.57-1.6-1.54-4.17.07-5.73.79-.78,1.81-1.16,2.83-1.16s2.11.41,2.9,1.23l5.46,5.59-.05-9.8c-.01-2.24,1.8-4.06,4.04-4.07h.02c2.23,0,4.05,1.8,4.06,4.04l.15,41.69.13,37.25.15,41.96Z"/>
      </g>
    </g>
  </g>
</svg>